<svg width="32" height="32" viewBox="0 0 32 32" fill="none" xmlns="http://www.w3.org/2000/svg">
<g clip-path="url(#clip0_78_32)">
<path d="M31.9999 19.7402V13.3512H28.0434L18.6778 4.69746C18.783 4.40101 18.8408 4.08233 18.8408 3.75022C18.8408 2.18374 17.5664 0.909317 15.9999 0.909317C14.4334 0.909317 13.159 2.18374 13.159 3.75022C13.159 4.0823 13.2168 4.40101 13.3219 4.69746L3.9564 13.3512H-0.00012207V19.7403H1.11843L5.00488 31.0908H26.9948L30.8813 19.7403H31.9999V19.7402ZM21.2039 23.1382H17.1215V19.7712H21.5364L21.2039 23.1382ZM14.8782 28.8475H11.3596L11.0173 25.3815H14.8782V28.8475ZM10.7959 23.1382L10.4634 19.7712H14.8782V23.1382H10.7959ZM16.5975 3.75022C16.5975 3.92345 16.523 4.07923 16.4048 4.18846C16.2982 4.28703 16.1562 4.34783 15.9999 4.34783C15.8436 4.34783 15.7016 4.28703 15.5949 4.18846C15.4768 4.0792 15.4023 3.92345 15.4023 3.75022C15.4023 3.577 15.4768 3.42122 15.5949 3.31199C15.7015 3.21342 15.8436 3.15262 15.9999 3.15262C16.1562 3.15262 16.2982 3.21342 16.4048 3.31199C16.523 3.42125 16.5975 3.577 16.5975 3.75022ZM14.8447 6.34473C15.1979 6.50262 15.5886 6.59117 15.9999 6.59117C16.4111 6.59117 16.8018 6.50262 17.155 6.34473L24.7378 13.3513H7.26196L14.8447 6.34473ZM2.24318 15.5945H29.7566V17.497H2.24318V15.5945ZM8.2092 19.7712L8.54167 23.1382H4.65307L3.50022 19.7712H8.2092ZM6.60794 28.8475L5.42117 25.3815H8.76319L9.10543 28.8475H6.60794ZM17.1215 25.3815H20.9824L20.6401 28.8474H17.1215V25.3815ZM25.3918 28.8475H22.8943L23.2365 25.3815H26.5786L25.3918 28.8475ZM27.3467 23.1382H23.4581L23.7906 19.7712H28.4996L27.3467 23.1382Z" fill="#00226D"/>
</g>
<defs>
<clipPath id="clip0_78_32">
<rect width="32" height="32" fill="white" transform="translate(-0.00012207)"/>
</clipPath>
</defs>
</svg>
